<svg width="500" height="500" fill="none" xmlns="http://www.w3.org/2000/svg">
    <path fill="#fff" d="M0 0h500v500H0z" />
    <path fill="#f54949" d="M0 278h500v222H0z" />
    <path fill="#f54949" d="M175.818 323.6v15.2h-17.182V354h-34.363v-15.2h-17.182v-15.2H89.909v15.2H72.727V354H38.364v-15.2H21.182v-15.2H4V278h17.182v-15.2h17.182v-15.2h17.181v-15.2h17.182v-15.2H89.91V202h17.182v15.2h17.182v15.2h17.182v15.2h17.181v15.2h17.182V278H193v45.6h-17.182zM478.818 323.6v15.2h-17.182V354h-34.363v-15.2h-17.182v-15.2h-17.182v15.2h-17.182V354h-34.363v-15.2h-17.182v-15.2H307V278h17.182v-15.2h17.182v-15.2h17.181v-15.2h17.182v-15.2h17.182V202h17.182v15.2h17.182v15.2h17.182v15.2h17.181v15.2h17.182V278H496v45.6h-17.182z" />
    <path fill="#f54949" d="M328.818 263.4v15.3h-17.182V294h-34.363v-15.3h-17.182v-15.3h-17.182v15.3h-17.182V294h-34.363v-15.3h-17.182v-15.3H157v-45.9h17.182v-15.3h17.182v-15.3h17.181v-15.3h17.182v-15.3h17.182V141h17.182v15.3h17.182v15.3h17.182v15.3h17.181v15.3h17.182v15.3H346v45.9h-17.182z" />
    <path fill="#d23737" d="M233.818 377.6v-15.3h-17.182V347h-34.363v15.3h-17.182v15.3h-17.182v-15.3h-17.182V347H96.364v15.3H79.182v15.3H62v45.9h17.182v15.3h17.182v15.3h17.181v15.3h17.182v15.3h17.182V500h17.182v-15.3h17.182v-15.3h17.182v-15.3h17.181v-15.3h17.182v-15.3H251v-45.9h-17.182zM422.818 377.6v-15.3h-17.182V347h-34.363v15.3h-17.182v15.3h-17.182v-15.3h-17.182V347h-34.363v15.3h-17.182v15.3H251v45.9h17.182v15.3h17.182v15.3h17.181v15.3h17.182v15.3h17.182V500h17.182v-15.3h17.182v-15.3h17.182v-15.3h17.181v-15.3h17.182v-15.3H440v-45.9h-17.182z" />
    <path fill="#fff" d="M388.455 484.6V500h-85.909v-15.4h17.181v-15.3h17.182V454h17.182v15.3h17.182v15.3h17.182z" />
    <path fill="#d23737" d="M328.818 247.4v-15.2h-17.182V217h-34.363v15.2h-17.182v15.2h-17.182v-15.2h-17.182V217h-34.363v15.2h-17.182v15.2H157V293h17.182v15.2h17.182v15.2h17.181v15.2h17.182v15.2h17.182V369h17.182v-15.2h17.182v-15.2h17.182v-15.2h17.181v-15.2h17.182V293H346v-45.6h-17.182z" />
    <path stroke="#f54949" stroke-width="6" d="M302.182 261.8v3H314V290h-11.818v10.4h-11.818v10.4h-11.819v10.4h-11.818v10.4h-11.818V342h-5.818v-10.4h-11.818v-10.4h-11.818v-10.4h-11.819v-10.4h-11.818V290H190v-25.2h11.818v-10.4h11.818V244h17.637v10.4h11.818v10.4H260.909v-10.4h11.818V244h17.637v10.4h11.818v7.4z" />
    <path fill="#f54949" d="M250 12h4v131h-4z" />
    <path fill="#fff" stroke="#d23737" stroke-width="2" d="M261.2 5.91h1V2h8.8v3.91h3.6v3.908h3.6v3.91h3.6v3.908h3.6v3.91h3.6v1.909h-3.6v3.909h-3.6v3.909h-3.6v3.909h-3.6v3.909H271V43h-8.8v-3.91h-3.6v-3.908H255v-5.818h3.6v-3.91h3.6v-5.909h-3.6v-3.909H255V9.818h3.6V5.91h2.6z" />
    <path fill="#fff" d="M126.545 268v-5.5h-6.454V257h-12.909v5.5h-6.455v5.5h-6.454v-5.5h-6.455V257H74.91v5.5h-6.455v5.5H62v16.5h6.454v5.5h6.455v5.5h6.455v5.5h6.454v5.5h6.455v5.5h6.454v-5.5h6.455V301h6.454v-5.5h6.455V290h6.454v-5.5H133V268h-6.455zM436.545 268v-5.5h-6.454V257h-12.909v5.5h-6.455v5.5h-6.454v-5.5h-6.455V257h-12.909v5.5h-6.454v5.5H372v16.5h6.455v5.5h6.454v5.5h6.455v5.5h6.454v5.5h6.455v5.5h6.454v-5.5h6.455V301h6.454v-5.5h6.455V290h6.454v-5.5H443V268h-6.455zM199.454 484.6V500h-85.909v-15.4h17.182v-15.3h17.182V454h17.182v15.3h17.182v15.3h17.181z" />
</svg>
